<svg width="76" height="20" viewBox="0 0 76 20" fill="none" xmlns="http://www.w3.org/2000/svg">
  <path d="M30.0159 0C28.0381 0 26.1047 0.58649 24.4602 1.6853C22.8157 2.78412 21.534 4.3459 20.7771 6.17316C20.0202 8.00042 19.8222 10.0111 20.208 11.9509C20.5939 13.8907 21.5463 15.6725 22.9448 17.0711C24.3433 18.4696 26.1252 19.422 28.065 19.8078C30.0048 20.1937 32.0154 19.9957 33.8427 19.2388C35.67 18.4819 37.2318 17.2002 38.3306 15.5557C39.4294 13.9112 40.0159 11.9778 40.0159 10C40.0159 8.68678 39.7572 7.38642 39.2547 6.17316C38.7521 4.95991 38.0155 3.85752 37.0869 2.92893C36.1583 2.00035 35.056 1.26375 33.8427 0.761204C32.6294 0.258658 31.3291 0 30.0159 0M30.0159 18.1722C28.3996 18.1722 26.8196 17.6929 25.4756 16.7949C24.1317 15.897 23.0843 14.6206 22.4657 13.1274C21.8472 11.6341 21.6854 9.99093 22.0007 8.40568C22.316 6.82043 23.0944 5.36428 24.2373 4.22138C25.3802 3.07848 26.8363 2.30015 28.4216 1.98483C30.0068 1.6695 31.65 1.83134 33.1432 2.44987C34.6365 3.06841 35.9128 4.11586 36.8108 5.45977C37.7088 6.80368 38.1881 8.38369 38.1881 10C38.1857 12.1667 37.3239 14.2439 35.7918 15.7759C34.2598 17.308 32.1825 18.1698 30.0159 18.1722Z" fill="#282828"/>
  <path d="M53.3647 0C51.3869 0 49.4535 0.58649 47.809 1.6853C46.1646 2.78412 44.8828 4.3459 44.126 6.17316C43.3691 8.00042 43.171 10.0111 43.5569 11.9509C43.9428 13.8907 44.8952 15.6725 46.2937 17.0711C47.6922 18.4696 49.474 19.422 51.4138 19.8078C53.3537 20.1937 55.3643 19.9957 57.1916 19.2388C59.0188 18.4819 60.5806 17.2002 61.6794 15.5557C62.7783 13.9112 63.3647 11.9778 63.3647 10C63.3647 8.68678 63.1061 7.38642 62.6035 6.17316C62.101 4.95991 61.3644 3.85752 60.4358 2.92893C59.5072 2.00035 58.4048 1.26375 57.1916 0.761204C55.9783 0.258658 54.678 0 53.3647 0M53.3647 18.1722C51.7484 18.1722 50.1684 17.6929 48.8245 16.7949C47.4806 15.897 46.4332 14.6206 45.8146 13.1274C45.1961 11.6341 45.0343 9.99093 45.3496 8.40568C45.6649 6.82043 46.4432 5.36428 47.5861 4.22138C48.729 3.07848 50.1852 2.30015 51.7704 1.98483C53.3557 1.6695 54.9988 1.83134 56.4921 2.44987C57.9854 3.06841 59.2617 4.11586 60.1597 5.45977C61.0577 6.80368 61.5369 8.38369 61.5369 10C61.5345 12.1667 60.6728 14.2439 59.1407 15.7759C57.6086 17.308 55.5314 18.1698 53.3647 18.1722Z" fill="#282828"/>
  <path d="M11.7639 16.6603C10.9173 18.5444 8.80481 18.5467 7.94838 16.6603C7.55202 15.7889 7.18636 14.9041 6.8514 14.0058L1.68012 0.135498H0L5.29537 14.4732C5.66382 15.472 6.064 16.4581 6.49589 17.4315C6.73261 18.1353 7.18435 18.7471 7.78737 19.1805C8.39039 19.614 9.11426 19.8471 9.85688 19.8471C10.5995 19.8471 11.3234 19.614 11.9264 19.1805C12.5294 18.7471 12.9811 18.1353 13.2179 17.4315C13.6487 16.4581 14.0489 15.472 14.4184 14.4732L19.713 0.135498H18.0329L12.8608 14.0058C12.5269 14.9031 12.1612 15.7879 11.7639 16.6603Z" fill="#282828"/>
  <path d="M70.0817 18.0504C69.5322 18.0387 69.0084 17.8152 68.6197 17.4265C68.231 17.0379 68.0075 16.5141 67.9958 15.9645C67.9346 15.3066 67.9092 14.6459 67.9197 13.9852V0.103516H66.2396V13.922C66.2253 14.6332 66.2469 15.3446 66.3043 16.0536C66.3273 17.0274 66.7244 17.9549 67.4132 18.6437C68.102 19.3324 69.0295 19.7296 70.0033 19.7526C70.7123 19.8099 71.4237 19.8315 72.1348 19.8173H75.205V18.1364H72.0686C71.4052 18.1435 70.742 18.1148 70.0817 18.0504Z" fill="#282828"/>
</svg>